# xmcd
#
# Track frame offsets: 
#        150
#        25078
#        42158
#        64360
#        79318
#        93453
#        110833
#        130795
#        148658
#        167658
#
# Disc length: 2534 seconds
#
# Revision: 20
# Processed by: cddbd v1.5.2PL0 Copyright (c) Steve Scherf et al.
# Submitted via: ExactAudioCopy v1.0b3
#
DISCID=8a09e40a
DTITLE=TOTO - TOTO IV (紙ジャケット仕様) Super Bit Mapping SRCS-7917
DYEAR=1982
DGENRE=Rock
TTITLE0=Rosanna
TTITLE1=Make Believe
TTITLE2=I Won't Hold You Back
TTITLE3=Good For You
TTITLE4=It's A Feeling
TTITLE5=Afraid Of Love
TTITLE6=Lovers In The Night
TTITLE7=We Made It
TTITLE8=Waiting For Your Love
TTITLE9=Africa
EXTD=Record number: CBS 450088-2\n\nDavid Hungate - b\nBobby Kimball -
EXTD=voc\nSteve Lukather - g, voc\nDavid Paich - keyb, voc\nJeff Porc
EXTD=arp - dr, perc\nSteve Porcaro - keyb, voc YEAR: 1999
EXTT0=
EXTT1=
EXTT2=
EXTT3=
EXTT4=
EXTT5=
EXTT6=
EXTT7=
EXTT8=
EXTT9=
PLAYORDER=
